<?xml version="1.0" encoding="UTF-8"?>
<svg version="1.1" xmlns="http://www.w3.org/2000/svg" width="553" height="512">
<path d="M0 0 C1.70209877 0.00333092 1.70209877 0.00333092 3.43858337 0.00672913 C4.71983597 0.00680466 6.00108856 0.00688019 7.32116699 0.00695801 C8.73001646 0.01206542 10.13886554 0.01728143 11.54771423 0.02259827 C12.98118033 0.02446249 14.41464706 0.02588637 15.84811401 0.02688599 C19.62765755 0.03071079 23.40716288 0.04054075 27.18669128 0.05158997 C31.04075097 0.06180489 34.8948168 0.06638378 38.74888611 0.07142639 C46.31596085 0.08216306 53.88300407 0.09923903 61.45005798 0.12025452 C64.41475851 5.9132845 67.22734373 11.69773209 69.62193298 17.74916077 C69.90127182 18.4440712 70.18061066 19.13898163 70.46841431 19.85494995 C71.06882591 21.3492489 71.6674738 22.84425754 72.26448059 24.33992004 C73.90642677 28.45161422 75.56343973 32.55723395 77.21958923 36.66322327 C77.56518387 37.52071167 77.9107785 38.37820007 78.2668457 39.26167297 C82.07655459 48.69938716 85.97869601 58.09827604 89.88755798 67.49525452 C95.39913159 80.75295854 100.88380604 94.02102785 106.32505798 107.30775452 C112.17435242 121.58926704 118.05348634 135.85819741 123.95005798 150.12025452 C129.80355864 164.27870812 135.64152862 178.44329118 141.45005798 192.62025452 C147.19892086 206.65019386 152.97221802 220.66988175 158.76255798 234.68275452 C159.15875336 235.64158539 159.55494873 236.60041626 159.96315002 237.58830261 C162.79144597 244.43256498 165.62065114 251.27645134 168.45005798 258.12025452 C171.67984365 265.93249877 174.90923605 273.74490526 178.13755798 281.55775452 C178.53399506 282.51714935 178.93043213 283.47654419 179.33888245 284.4650116 C185.0537738 298.2973432 190.74593271 312.13882655 196.42012024 325.98789978 C201.90571852 339.37545995 207.42249291 352.74997187 212.95005798 366.12025452 C218.80348288 380.27873918 224.64162705 394.44325072 230.45005798 408.62025452 C236.48899693 423.35917393 242.5560147 438.08636306 248.63755798 452.80775452 C249.0440155 453.7917926 249.45047302 454.77583069 249.86924744 455.78968811 C250.65813929 457.69940027 251.44720682 459.60903986 252.23646545 461.51860046 C252.9794725 463.3166739 253.72190239 465.11498596 254.46369934 466.91355896 C255.9935022 470.61905379 257.52892325 474.32102555 259.10874939 478.00550842 C259.56813904 479.08106995 260.02752869 480.15663147 260.50083923 481.26478577 C260.88538269 482.15141907 261.26992615 483.03805237 261.66612244 483.95155334 C262.45005798 486.12025452 262.45005798 486.12025452 262.45005798 489.12025452 C263.51442078 489.10454407 264.57878357 489.08883362 265.67539978 489.07264709 C269.63560884 489.01822397 273.59578502 488.98385959 277.55625916 488.95545959 C279.26822982 488.94040112 280.9801621 488.91994996 282.69200134 488.89393616 C285.15702303 488.85742262 287.62153334 488.84049889 290.08677673 488.82728577 C291.22925117 488.80405998 291.22925117 488.80405998 292.39480591 488.78036499 C297.93533 488.77862221 300.87039749 490.11385191 305.13755798 493.43275452 C309.34359737 498.84051945 308.84650637 505.48118675 309.45005798 512.12025452 C233.55005798 512.12025452 157.65005798 512.12025452 79.45005798 512.12025452 C79.45005798 504.53025452 79.45005798 496.94025452 79.45005798 489.12025452 C99.25005798 489.12025452 119.05005798 489.12025452 139.45005798 489.12025452 C135.55193298 479.15837952 135.55193298 479.15837952 131.57505798 468.99525452 C130.29899597 465.73409017 129.02293396 462.47292582 127.74687195 459.21176147 C124.10162934 449.89587956 120.4559145 440.58018281 116.80943298 431.26478577 C115.31457898 427.44579975 113.81979118 423.62678782 112.32505798 419.80775452 C111.95454315 418.86109924 111.58402832 417.91444397 111.20228577 416.93910217 C107.17995763 406.66145865 103.16054317 396.38268968 99.14927673 386.10072327 C98.80201538 385.21062561 98.45475403 384.32052795 98.0969696 383.40345764 C96.4077488 379.07318888 94.71920985 374.74265564 93.03160095 370.41175842 C90.04068974 362.73888818 87.04070339 355.06994076 84.00865173 347.41322327 C83.48252321 346.08265903 82.95639998 344.75209269 82.43028259 343.42152405 C81.47270087 341.0003509 80.51064305 338.58112272 79.54600525 336.16273499 C79.13278015 335.11875549 78.71955505 334.074776 78.29380798 332.99916077 C77.75530212 331.64673279 77.75530212 331.64673279 77.20591736 330.26698303 C76.45005798 328.12025452 76.45005798 328.12025452 76.45005798 326.12025452 C20.35005798 326.12025452 -35.74994202 326.12025452 -93.54994202 326.12025452 C-94.53994202 329.42025452 -95.52994202 332.72025452 -96.54994202 336.12025452 C-97.29733176 338.28411142 -98.066671 340.44059888 -98.86463928 342.58631897 C-99.30197388 343.7667981 -99.73930847 344.94727722 -100.18989563 346.16352844 C-100.66529274 347.43689674 -101.1407799 348.71023142 -101.61634827 349.98353577 C-102.124379 351.35061428 -102.63216423 352.71778406 -103.13972473 354.08503723 C-104.50845444 357.76927053 -105.88134827 361.45193879 -107.25523758 365.13425064 C-108.11551426 367.44099242 -108.97458611 369.7481792 -109.83323669 372.05552673 C-118.78808344 396.11854991 -127.80717964 420.15735377 -136.86244202 444.18275452 C-137.14111744 444.9221439 -137.41979286 445.66153328 -137.70691299 446.4233284 C-139.56603178 451.35535369 -141.42667439 456.28680223 -143.28822327 461.21791077 C-143.74864014 462.43798828 -144.20905701 463.6580658 -144.6834259 464.91511536 C-147.61026638 472.66136513 -150.56875765 480.39476379 -153.54994202 488.12025452 C-152.84694473 488.12612076 -152.14394745 488.131987 -151.41964722 488.13803101 C-144.78400714 488.19601301 -138.14868702 488.26812088 -131.51337147 488.35596943 C-128.10232737 488.40063523 -124.69140166 488.43989919 -121.28016663 488.46669006 C-117.35551053 488.49775258 -113.431356 488.5525407 -109.50697327 488.60853577 C-108.28597427 488.61492569 -107.06497528 488.62131561 -105.80697632 488.62789917 C-104.09576851 488.65759041 -104.09576851 488.65759041 -102.34999084 488.68788147 C-101.34849503 488.69898453 -100.34699921 488.71008759 -99.31515503 488.7215271 C-94.5668356 489.40620677 -92.13893985 491.33492407 -89.29994202 495.12025452 C-85.58065783 501.49617026 -86.54994202 503.34528293 -86.54994202 512.12025452 C-138.35994202 512.12025452 -190.16994202 512.12025452 -243.54994202 512.12025452 C-243.54994202 504.53025452 -243.54994202 496.94025452 -243.54994202 489.12025452 C-216.81994202 488.62525452 -216.81994202 488.62525452 -189.54994202 488.12025452 C-186.82744202 480.94275452 -184.10494202 473.76525452 -181.29994202 466.37025452 C-174.42762024 448.26971193 -167.51169873 430.18657709 -160.54994202 412.12025452 C-153.96556522 395.03215263 -147.42090414 377.92966691 -140.92494202 360.80775452 C-134.8666402 344.83975523 -128.78864489 328.87963036 -122.67494202 312.93275452 C-116.11966328 295.83376611 -109.57926877 278.72917048 -103.04994202 261.62025452 C-96.56033256 244.61626237 -90.06253177 227.6154585 -83.54994202 210.62025452 C-77.10129254 193.79117155 -70.66495976 176.95741979 -64.23744202 160.12025452 C-63.79999664 158.97435852 -63.36255127 157.82846252 -62.91184998 156.64784241 C-59.79086847 148.47211165 -56.67035338 140.2962029 -53.54994202 132.12025452 C-49.98775979 122.78679986 -46.42532732 113.45344081 -42.86244202 104.12025452 C-42.42807831 102.98235474 -41.9937146 101.84445496 -41.54618835 100.67207336 C-36.90903479 88.52484703 -32.2683225 76.37900121 -27.61634827 64.23744202 C-27.22088806 63.20529572 -26.82542786 62.17314941 -26.41798401 61.10972595 C-24.50997989 56.1304027 -22.60132565 51.15132947 -20.69203186 46.17250061 C-17.45138589 37.71893102 -14.21822027 29.26283639 -11.02259827 20.79212952 C-10.62451965 19.73779221 -10.62451965 19.73779221 -10.21839905 18.66215515 C-9.01890076 15.48408102 -7.82257395 12.3049137 -6.63148499 9.12367249 C-6.03231262 7.53256653 -6.03231262 7.53256653 -5.42103577 5.90931702 C-4.90947937 4.54347473 -4.90947937 4.54347473 -4.3875885 3.15003967 C-3.1489218 0.14850223 -3.1489218 0.14850223 0 0 Z M-10.54994202 105.12025452 C-10.95905823 106.24326965 -11.36817444 107.36628479 -11.78968811 108.52333069 C-21.38685689 134.84476487 -31.14860593 161.09958128 -41.04994202 187.30775452 C-50.15921797 211.42131914 -59.2086113 235.5562286 -68.18199158 259.7207222 C-69.04561581 262.04610582 -69.90967109 264.37132888 -70.77381897 266.69651794 C-72.12652676 270.33672373 -73.47802075 273.97737773 -74.82844543 277.61843109 C-75.32355115 278.95307982 -75.81894504 280.2876217 -76.31465149 281.62204742 C-76.99367766 283.45042938 -77.67125674 285.27934857 -78.34877014 287.10829163 C-78.7277948 288.1303923 -79.10681946 289.15249298 -79.49732971 290.20556641 C-80.56421316 293.15977138 -81.55668639 296.14048765 -82.54994202 299.12025452 C-33.70994202 299.12025452 15.13005798 299.12025452 65.45005798 299.12025452 C60.5666529 285.22862005 60.5666529 285.22862005 55.37583923 271.46400452 C55.01469025 270.53479187 54.65354126 269.60557922 54.28144836 268.64820862 C53.11088564 265.63794993 51.93670397 262.62911713 50.76255798 259.62025452 C49.92153332 257.45890735 49.08080081 255.29744647 48.24034119 253.13587952 C46.50183274 248.66537638 44.76209335 244.19535548 43.02134705 239.72572327 C39.05041944 229.52765071 35.09382243 219.32402236 31.13755798 209.12025452 C30.75535095 208.13472595 30.37314392 207.14919739 29.97935486 206.13380432 C23.46559725 189.33728385 16.96832474 172.53441431 10.47987747 155.72810364 C9.77616087 153.90548583 9.07226343 152.08293784 8.36836243 150.26039124 C7.47123571 147.93730224 6.57439456 145.61410295 5.67785645 143.29078674 C4.82041042 141.06905807 3.9622241 138.84761494 3.10324097 136.6264801 C1.07303847 131.36859941 -0.93565893 126.10428461 -2.90003967 120.82142639 C-3.26732681 119.83877808 -3.63461395 118.85612976 -4.01303101 117.84370422 C-4.69978921 116.0021785 -5.38077101 114.15848463 -6.05499268 112.31233215 C-6.35601395 111.5067688 -6.65703522 110.70120544 -6.96717834 109.87123108 C-7.22622452 109.1669397 -7.48527069 108.46264832 -7.75216675 107.73701477 C-8.44609587 105.92042732 -8.44609587 105.92042732 -10.54994202 105.12025452 Z " fill="#FFFFFF" transform="translate(243.54994201660156,-0.1202545166015625)"/>
</svg>
